<?xml version="1.0" encoding="UTF-8"?>
<svg width="110px" height="79px" viewBox="0 0 110 79" version="1.1" xmlns="http://www.w3.org/2000/svg" xmlns:xlink="http://www.w3.org/1999/xlink">
    <!-- Generator: Sketch 43.2 (39069) - http://www.bohemiancoding.com/sketch -->
    <title>icon-c</title>
    <desc>Created with Sketch.</desc>
    <defs></defs>
    <g id="Page-1" stroke="none" stroke-width="1" fill="none" fill-rule="evenodd" stroke-linejoin="round">
        <g id="icons" transform="translate(-1021.000000, -644.000000)" stroke="#000000" stroke-width="6">
            <g id="icon-c" transform="translate(1024.000000, 647.000000)">
                <path d="M85.01,38.441 C85.01,38.441 73.58,24.015 52.27,24.015 C30.96,24.015 19.48,38.448 19.48,38.448 M68.39,54.331 C68.39,54.331 62.77,47.143 52.26,47.143 C41.76,47.143 36.1,54.331 36.1,54.331 M103.86,25.313 C103.86,25.313 85.85,0.684 52.29,0.684 C18.71,0.684 0.64,25.319 0.64,25.319" id="Stroke-176" stroke-linecap="round"></path>
                <path d="M52.25,72.123 C54.04,72.123 55.49,70.65 55.49,68.833 C55.49,67.016 54.04,65.543 52.25,65.543 C50.46,65.543 49.01,67.016 49.01,68.833 C49.01,70.65 50.46,72.123 52.25,72.123 Z" id="Stroke-177"></path>
            </g>
        </g>
    </g>
</svg>