<?xml version="1.0" encoding="UTF-8"?>
<svg width="71px" height="137px" viewBox="0 0 71 137" version="1.1" xmlns="http://www.w3.org/2000/svg" xmlns:xlink="http://www.w3.org/1999/xlink">
    <!-- Generator: Sketch 43.2 (39069) - http://www.bohemiancoding.com/sketch -->
    <title>icon-b3-dots</title>
    <desc>Created with Sketch.</desc>
    <defs></defs>
    <g id="Page-1" stroke="none" stroke-width="1" fill="none" fill-rule="evenodd">
        <g id="icon-b3-dots" transform="translate(2.000000, 2.000000)" stroke="#000000" stroke-width="5">
            <path d="M18.3236,134.5968 C18.2626,133.2048 15.5746,115.9278 15.5746,115.9278 C14.6116,110.3638 15.1876,102.6308 15.4666,99.6878 C14.9616,97.1698 13.7536,91.0458 12.5676,84.3268 L3.1276,83.2238 C3.1276,83.2238 1.0786,74.9298 0.8426,72.6778 C0.4666,69.0738 0.9326,66.2168 1.3416,64.5668 C1.1796,61.5158 1.0756,57.8388 0.9756,54.2758 C0.8546,49.9778 0.7306,45.5508 0.5086,42.2998 C0.5086,42.2998 2.2066,26.1528 3.5836,19.7578 C4.3286,16.2968 5.0326,13.0288 5.0876,11.3888 C5.0876,11.3888 7.8236,5.6788 10.8806,4.3918 C13.7756,3.1728 19.5496,0.6378 20.3506,0.2558" id="Stroke-1"></path>
            <path d="M48.2353,134.5968 C48.2963,133.2048 50.9843,115.9278 50.9843,115.9278 C51.9473,110.3638 51.3713,102.6308 51.0923,99.6878 C51.5973,97.1698 52.8053,91.0458 53.9913,84.3268 L63.4313,83.2238 C63.4313,83.2238 65.4803,74.9298 65.7163,72.6778 C66.0923,69.0738 65.6263,66.2168 65.2173,64.5668 C65.3793,61.5158 65.4833,57.8388 65.5833,54.2758 C65.7043,49.9778 65.8283,45.5508 66.0503,42.2998 C66.0503,42.2998 64.3523,26.1528 62.9753,19.7578 C62.2303,16.2968 61.5263,13.0288 61.4713,11.3888 C61.4713,11.3888 58.7353,5.6788 55.6783,4.3918 C52.7833,3.1728 47.0093,0.6378 46.2083,0.2558" id="Stroke-3"></path>
        </g>
    </g>
</svg>