<?xml version="1.0" encoding="UTF-8"?>
<svg width="72px" height="188px" viewBox="0 0 72 188" version="1.1" xmlns="http://www.w3.org/2000/svg" xmlns:xlink="http://www.w3.org/1999/xlink">
    <!-- Generator: Sketch 43.2 (39069) - http://www.bohemiancoding.com/sketch -->
    <title>icon-b3</title>
    <desc>Created with Sketch.</desc>
    <defs></defs>
    <g id="Page-1" stroke="none" stroke-width="1" fill="none" fill-rule="evenodd">
        <g id="icons" transform="translate(-1189.000000, -214.000000)" stroke="#000000">
            <g id="icon-b3" transform="translate(1192.000000, 216.000000)">
                <path d="M47.85,164.027 C47.91,162.635 50.6,145.358 50.6,145.358 C51.56,139.793 50.98,132.061 50.7,129.118 C51.21,126.6 52.42,120.476 53.6,113.756 L63.04,112.653 C63.04,112.653 65.09,104.36 65.33,102.108 C65.7,98.504 65.24,95.646 64.83,93.997 C64.99,90.946 65.1,87.268 65.2,83.705 C65.32,79.408 65.44,74.981 65.66,71.73 C65.66,71.73 63.96,55.583 62.59,49.188 C61.84,45.727 61.14,42.458 61.08,40.819 C61.08,40.819 58.35,35.109 55.29,33.822 C52.4,32.603 46.62,30.068 45.82,29.686 L48.2,21 C48.2,21 47.2,12.4 47.2,10.434 C47.2,8.467 42,1.8 40.24,1.2 C38.47,0.6 28.05,0.6 28.05,0.6 L19.6,6.434 L17.2,19.2 L19.96,29.686 C19.16,30.068 13.39,32.603 10.49,33.822 C7.44,35.109 4.7,40.819 4.7,40.819 C4.64,42.458 3.94,45.727 3.2,49.188 C1.82,55.583 0.12,71.73 0.12,71.73 C0.34,74.981 0.47,79.408 0.59,83.705 C0.69,87.268 0.79,90.946 0.95,93.997 C0.55,95.646 0.08,98.504 0.46,102.108 C0.69,104.36 2.74,112.653 2.74,112.653 L12.18,113.756 C13.37,120.476 14.57,126.6 15.08,129.118 C14.8,132.061 14.22,139.793 15.19,145.358 C15.19,145.358 17.87,162.635 17.94,164.027 C17.58,164.548 8.8,171.6 8.8,171.6 L7,182.4 L19,182.2 L32.89,182.4 L47.2,182.9 L58.2,182.2 L56.8,175.068 L47.85,164.027 Z" id="Stroke-80" stroke-width="5"></path>
                <path d="M29.27,28.195 C29.27,39.723 16.25,34.887 13.39,40.99 C13.2,46.711 8.75,59.685 8.75,71.202 C9.2,77.733 9.25,88.18 9.67,94.711 C9.67,94.711 7.58,99.841 10.53,106.977 L13.8,106.977 C15.65,102.523 13.8,94.167 13.8,94.167 L15.23,73.068 L19.82,54.865 L22.41,72.782 C22.41,72.782 18,83.091 18,91.427 C18,99.762 23.96,128.712 23.96,128.712 C23.96,128.712 22.86,138.207 23.9,144.121 C24.71,148.784 27.28,162.866 26.68,165.722 C26.23,167.827 20.62,173.318 22.8,173.318 L31.71,173.318 C32.49,173.318 33,172.458 33,171.67 C33,170.684 32.99,168.057 32.99,165.574 L32.99,92.009 L32.99,165.574 C32.99,168.057 32.98,170.684 32.98,171.67 C32.98,172.458 33.5,173.318 34.27,173.318 L43.19,173.318 C45.36,173.318 39.75,167.827 39.31,165.722 C38.7,162.866 41.27,148.784 42.09,144.121 C43.12,138.207 42.02,128.712 42.02,128.712 C42.02,128.712 47.98,99.762 47.98,91.427 C47.98,83.091 43.57,72.782 43.57,72.782 L46.22,54.63 L50.75,73.068 L52.18,94.167 C52.18,94.167 50.33,102.515 52.18,106.977 L55.45,106.977 C58.41,99.841 56.32,94.711 56.32,94.711 C56.73,88.18 56.78,77.733 57.23,71.202 C57.23,59.685 52.78,46.711 52.59,40.99 C49.38,34.544 36.71,39.723 36.71,28.195" id="Stroke-81" stroke-width="3.5" stroke-linejoin="round"></path>
                <path d="M40.17,17.805 C40.17,23.661 36.95,29.388 32.99,29.388 C29.03,29.388 25.82,23.661 25.82,17.805 C25.82,11.95 29.03,8.184 32.99,8.184 C36.95,8.184 40.17,11.95 40.17,17.805 Z" id="Stroke-82" stroke-width="3.5"></path>
            </g>
        </g>
    </g>
</svg>