<?xml version="1.0" encoding="UTF-8" standalone="no"?>
<svg
   xmlns:dc="http://purl.org/dc/elements/1.1/"
   xmlns:cc="http://creativecommons.org/ns#"
   xmlns:rdf="http://www.w3.org/1999/02/22-rdf-syntax-ns#"
   xmlns:svg="http://www.w3.org/2000/svg"
   xmlns="http://www.w3.org/2000/svg"
   xml:space="preserve"
   enable-background="new 0 0 792 612"
   viewBox="0 0 593.58398 233.70599"
   height="233.70599"
   width="593.58398"
   y="0px"
   x="0px"
   id="Layer_1"
   version="1.1"><metadata
     id="metadata45"><rdf:RDF><cc:Work
         rdf:about=""><dc:format>image/svg+xml</dc:format><dc:type
           rdf:resource="http://purl.org/dc/dcmitype/StillImage" /><dc:title></dc:title></cc:Work></rdf:RDF></metadata><defs
     id="defs43" /><g
     transform="translate(-100.074,-189.553)"
     id="g3"><path
       style="fill:#010101"
       id="path5"
       d="m 566.662,316.67 0,96.589 -26.869,0 0,-10.051 12.803,0 0,-76.486 -12.803,0 0,-10.052 26.869,0 z" /><path
       style="fill:#010101"
       id="path7"
       d="m 405.064,346.64 c -4.941,-5.607 -11.61,-8.424 -20.007,-8.447 -8.362,-0.025 -15.03,2.752 -20.005,8.33 -4.974,5.578 -7.474,13.148 -7.502,22.711 -0.027,9.562 2.429,17.146 7.37,22.754 4.941,5.608 11.594,8.422 19.956,8.447 8.397,0.023 15.083,-2.752 20.057,-8.332 1.307,-1.465 2.434,-3.078 3.398,-4.82 l -11.851,-6.164 c -0.487,0.953 -1.049,1.822 -1.694,2.6 -1.582,1.906 -4.118,4.086 -9.715,4.111 -0.054,0 -0.104,0.008 -0.159,0.008 -3.704,-0.01 -6.61,-1.65 -8.718,-4.922 -1.45,-2.248 -2.385,-5.074 -2.829,-8.533 l 38.775,0 c 0.172,-1.627 0.291,-3.229 0.295,-4.99 0.03,-9.562 -2.429,-17.146 -7.371,-22.753 z m -20.043,4.148 c 3.739,0.012 6.664,1.652 8.771,4.922 1.252,1.943 2.121,4.35 2.623,7.193 l -22.807,0 c 0.519,-2.842 1.401,-5.309 2.665,-7.244 2.128,-3.258 5.043,-4.881 8.748,-4.871 z" /><path
       style="fill:#010101"
       id="path9"
       d="m 445.83,338.245 c -10.869,0 -18.908,5.359 -21.889,13.475 l 11.258,5.814 0,0 c 1.998,-5.205 6.48,-6.678 10.631,-6.678 5.455,0 9.738,1.092 9.738,7.734 l 0,4.348 -9.264,0 c -15.062,0 -25.5,6.971 -25.5,18.832 0,11.859 7.947,18.73 18.146,18.73 8.539,0 13.533,-4.025 17.684,-9.125 l 1.541,7.592 12.797,0 0,-35.699 c 0.001,-19.093 -10.91,-25.023 -25.142,-25.023 z m 9.738,36.434 c 0,8.484 -7.062,13.227 -14.502,13.227 -4.568,0 -6.787,-2.914 -6.787,-6.047 0,-5.875 4.307,-7.418 11.225,-7.418 l 10.064,0 0,0.238 z" /><line
       style="fill:#010101"
       id="line11"
       y2="339.68799"
       x2="334.14499"
       y1="385.103"
       x1="326.99899" /><line
       style="fill:#010101"
       id="line13"
       y2="385.103"
       x2="301.75201"
       y1="339.68799"
       x1="294.71201" /><path
       style="fill:#010101"
       id="path15"
       d="m 281.796,339.688 12.916,0 6.187,39.906 7.256,-31.16 12.541,0 7.17,31.16 6.279,-39.906 12.91,0 -10.743,59.279 -14.714,0 -7.199,-30.805 -7.146,30.805 -14.715,0 -10.742,-59.279 z" /><path
       style="fill:#010101"
       id="path17"
       d="m 531.02,343.841 c -2.859,-3.719 -7.094,-5.582 -12.699,-5.582 -7.695,0 -11.971,3.551 -15.195,7.641 l 0,-6.211 -15.406,0 0,59.279 15.406,0 0,-26.375 c 0,-12.242 1.807,-21.734 10.334,-21.734 7.713,0 9.361,7.07 9.361,7.07 l 11.65,-6.041 c -0.703,-3.252 -1.842,-5.95 -3.451,-8.047 z" /></g><g
     transform="translate(-100.074,-189.553)"
     id="g19"><path
       style="fill:#010101"
       id="path21"
       d="m 244.138,199.613 26.869,0 0,10.052 -12.796,0 0,76.539 12.796,0 0,10.052 -26.869,0 0,-96.643 z" /><path
       style="fill:#010101"
       id="path23"
       d="m 638.162,243.431 0,38.479 -15.406,0 0,-36.095 c 0,-10.886 -2.707,-12.014 -6.441,-12.014 -8.529,0 -10.334,9.491 -10.334,21.733 l 0,26.375 -15.406,0 0,-59.278 15.406,0 0,6.211 c 3.225,-4.091 7.5,-7.641 15.193,-7.641 5.605,0 9.842,1.862 12.699,5.582 2.859,3.726 4.289,9.273 4.289,16.648 z" /><path
       style="fill:#010101"
       id="path25"
       d="m 121.407,202.891 19.107,0 21.334,79.019 -15.616,0 -4.874,-19.529 -20.899,0 -4.769,19.529 -15.616,0 21.333,-79.019 z m 9.524,14.286 -7.356,32.34 14.772,0 -7.416,-32.34 z" /><path
       style="fill:#010101"
       id="path27"
       d="m 220.477,229.244 c -3.389,-4.784 -8.075,-7.42 -14.032,-7.934 -0.706,-0.068 -1.432,-0.108 -2.188,-0.108 0,0 -0.002,0 -0.004,0 0,0 -10e-4,0 -0.002,0 -0.017,0 -0.032,0.001 -0.049,0.002 -7.659,0.017 -11.923,3.559 -15.14,7.639 l 0,-6.212 0,-23.078 -15.459,0 0,82.357 0.053,0 12.744,0 1.542,-7.591 c 2.834,3.596 6.955,9.126 16.836,9.126 6.777,0 12.031,-2.719 15.774,-8.148 3.743,-5.436 5.611,-13.092 5.611,-22.974 0.002,-10.023 -1.896,-17.713 -5.686,-23.079 z m -12.676,36.628 c -1.91,3.245 -4.534,4.868 -7.891,4.868 -3.357,0 -5.998,-1.623 -7.937,-4.868 -0.806,-1.344 -1.434,-2.911 -1.903,-4.678 -0.571,-2.605 -0.849,-5.635 -0.953,-8.924 0.088,-2.757 0.301,-5.326 0.704,-7.62 0.484,-2.184 1.199,-4.074 2.152,-5.665 1.938,-3.245 4.58,-4.867 7.937,-4.867 3.357,0 5.98,1.622 7.891,4.867 1.897,3.246 2.858,7.727 2.858,13.443 0,5.716 -0.96,10.198 -2.858,13.444 z" /><path
       style="fill:#010101"
       id="path29"
       d="m 505.17,229.649 c -4.941,-5.606 -11.609,-8.423 -20.008,-8.447 -8.361,-0.024 -15.031,2.753 -20.004,8.331 -4.975,5.578 -7.475,13.148 -7.502,22.71 -0.029,9.562 2.428,17.147 7.369,22.754 4.941,5.607 11.594,8.423 19.957,8.447 8.396,0.024 15.082,-2.752 20.057,-8.331 1.307,-1.466 2.434,-3.078 3.398,-4.819 l -11.852,-6.165 c -0.488,0.953 -1.049,1.821 -1.695,2.6 -1.582,1.906 -4.117,4.085 -9.713,4.11 -0.055,10e-4 -0.105,0.009 -0.16,0.009 -3.705,-0.011 -6.609,-1.65 -8.717,-4.921 -1.451,-2.25 -2.387,-5.076 -2.83,-8.534 l 38.775,0 c 0.172,-1.626 0.291,-3.228 0.295,-4.989 0.028,-9.564 -2.429,-17.148 -7.37,-22.755 z m -20.045,4.149 c 3.74,0.011 6.664,1.651 8.771,4.922 1.254,1.943 2.121,4.349 2.625,7.194 l -22.807,0 c 0.518,-2.843 1.4,-5.31 2.664,-7.246 2.128,-3.256 5.042,-4.88 8.747,-4.87 z" /><path
       style="fill:#010101"
       id="path31"
       d="m 571.115,229.649 c -4.941,-5.606 -11.609,-8.423 -20.008,-8.447 -8.361,-0.024 -15.029,2.753 -20.004,8.331 -4.975,5.578 -7.475,13.148 -7.502,22.71 -0.027,9.562 2.428,17.147 7.369,22.754 4.941,5.607 11.594,8.423 19.957,8.447 8.396,0.024 15.082,-2.752 20.057,-8.331 1.307,-1.466 2.434,-3.078 3.398,-4.819 l -11.852,-6.165 c -0.488,0.953 -1.049,1.821 -1.693,2.6 -1.582,1.906 -4.119,4.085 -9.715,4.11 -0.055,10e-4 -0.105,0.009 -0.16,0.009 -3.705,-0.011 -6.609,-1.65 -8.717,-4.921 -1.451,-2.25 -2.385,-5.076 -2.83,-8.534 l 38.775,0 c 0.172,-1.626 0.291,-3.228 0.295,-4.989 0.031,-9.564 -2.428,-17.148 -7.37,-22.755 z m -20.043,4.149 c 3.738,0.011 6.662,1.651 8.771,4.922 1.252,1.943 2.121,4.349 2.623,7.194 l -22.806,0 c 0.518,-2.843 1.4,-5.31 2.664,-7.246 2.127,-3.256 5.043,-4.88 8.748,-4.87 z" /><path
       style="fill:#010101"
       id="path33"
       d="m 383.132,264.095 c -0.485,0.954 -1.044,1.824 -1.688,2.604 -1.576,1.911 -4.105,4.097 -9.701,4.139 -0.055,10e-4 -0.105,0.01 -0.16,0.01 -3.704,0 -6.615,-1.632 -8.732,-4.896 -2.116,-3.263 -3.175,-7.807 -3.175,-13.629 0,-5.821 1.059,-10.364 3.175,-13.628 2.117,-3.264 5.028,-4.896 8.732,-4.896 5.711,0 8.27,2.213 9.861,4.143 0.645,0.781 1.204,1.653 1.689,2.608 L 395,234.421 c -0.961,-1.744 -2.082,-3.359 -3.385,-4.829 -4.958,-5.593 -11.636,-8.39 -20.033,-8.39 -8.362,0 -15.022,2.797 -19.98,8.39 -4.957,5.593 -7.436,13.17 -7.436,22.731 0,9.562 2.479,17.141 7.436,22.732 4.958,5.593 11.618,8.389 19.98,8.389 8.397,0 15.075,-2.796 20.033,-8.389 1.303,-1.47 2.424,-3.086 3.385,-4.83 l -11.868,-6.13 z" /><path
       style="fill:#010101"
       id="path35"
       d="m 315.19,235.863 -6.719,-2.542 c -4.662,-1.728 -7.72,-3.31 -9.185,-4.732 -1.465,-1.43 -2.196,-3.239 -2.196,-5.431 0,-2.817 1.001,-4.99 3.017,-6.508 1.847,-1.39 4.436,-2.138 7.762,-2.255 l 0,0 c 6.997,0 9.731,3.287 12.064,8.906 l 12.086,-6.149 c -3.916,-8.963 -10.455,-15.305 -23.759,-15.656 l -1.087,-0.021 c -7.82,0.068 -13.992,2.101 -18.501,6.126 -4.586,4.095 -6.876,9.718 -6.876,16.882 0,5.576 1.394,10.017 4.182,13.314 2.782,3.298 8.113,6.449 15.979,9.448 l 7.674,2.911 c 2.683,1.02 4.732,2.425 6.139,4.206 1.417,1.78 2.12,3.854 2.12,6.221 0,3.14 -1.06,5.582 -3.175,7.327 -1.927,1.587 -4.567,2.444 -7.919,2.589 -7.772,-0.04 -12.404,-4.551 -15.039,-10.665 l -11.646,6.247 c 4.019,9.172 11.047,16.939 25.186,17.347 l 0,0 c 0.487,0 0.968,0.012 1.442,0.002 8.804,-0.191 15.44,-2.154 19.915,-5.884 4.709,-3.936 7.063,-9.893 7.063,-17.865 0,-5.857 -1.499,-10.708 -4.498,-14.557 -2.999,-3.842 -7.674,-6.929 -14.029,-9.261 z" /><rect
       style="fill:#010101"
       id="rect37"
       height="11.444"
       width="43.544998"
       y="245.91499"
       x="650.11298" /><path
       style="fill:#010101"
       id="path39"
       d="m 450.037,226.784 c -2.857,-3.72 -7.094,-5.582 -12.699,-5.582 -7.693,0 -11.969,3.55 -15.193,7.641 l 0,-6.211 -15.406,0 0,59.278 15.406,0 0,-26.375 c 0,-12.242 1.805,-21.733 10.334,-21.733 7.713,0 9.359,7.069 9.359,7.069 l 11.652,-6.04 c -0.703,-3.253 -1.844,-5.95 -3.453,-8.047 z" /></g></svg>